<?xml version="1.0" encoding="UTF-8"?>
<svg id="Layer_2" data-name="Layer 2" xmlns="http://www.w3.org/2000/svg" xmlns:xlink="http://www.w3.org/1999/xlink" viewBox="0 0 215.15 215.02">
  <defs>
    <style>
      .cls-1 {
        fill: url(#linear-gradient-2);
      }

      .cls-2 {
        fill: url(#radial-gradient-4);
      }

      .cls-3 {
        fill: url(#radial-gradient);
      }

      .cls-4 {
        fill: url(#radial-gradient-2);
      }

      .cls-5 {
        fill: url(#radial-gradient-3);
      }

      .cls-6 {
        fill: url(#linear-gradient);
      }

      .cls-7 {
        fill: #1ba1ae;
      }
    </style>
    <radialGradient id="radial-gradient" cx="23.2" cy="198.64" fx="23.2" fy="198.64" r="186.8" gradientUnits="userSpaceOnUse">
      <stop offset=".18" stop-color="#2fba9e"/>
      <stop offset=".49" stop-color="#25bbaf"/>
      <stop offset=".78" stop-color="#23bbaf" stop-opacity=".52"/>
      <stop offset=".96" stop-color="#008792" stop-opacity=".5"/>
    </radialGradient>
    <radialGradient id="radial-gradient-2" cx="56.4" cy="73.83" fx="151.49" fy="73.83" r="106.9" gradientUnits="userSpaceOnUse">
      <stop offset=".8" stop-color="#1ca7ae"/>
      <stop offset="1" stop-color="#23bbaf" stop-opacity="0"/>
    </radialGradient>
    <radialGradient id="radial-gradient-3" cx="34.63" cy="115.42" fx="-15.2" fy="115.42" r="87.7" gradientUnits="userSpaceOnUse">
      <stop offset=".24" stop-color="#72c7a8"/>
      <stop offset=".45" stop-color="#66bea1"/>
      <stop offset=".82" stop-color="#55b197"/>
    </radialGradient>
    <linearGradient id="linear-gradient" x1="24.37" y1="126.03" x2="211.44" y2="-72.64" gradientUnits="userSpaceOnUse">
      <stop offset="0" stop-color="#72c7a8"/>
      <stop offset=".24" stop-color="#73ccd6"/>
      <stop offset=".42" stop-color="#26bbad"/>
      <stop offset=".75" stop-color="#72c7a8"/>
      <stop offset="1" stop-color="#72c8b4"/>
    </linearGradient>
    <radialGradient id="radial-gradient-4" cx="191.94" cy="20.86" fx="191.94" fy="20.86" r="140.4" gradientUnits="userSpaceOnUse">
      <stop offset=".24" stop-color="#72c7a8"/>
      <stop offset=".29" stop-color="#64c4a8"/>
      <stop offset=".47" stop-color="#37bdab"/>
      <stop offset=".56" stop-color="#26bbad"/>
      <stop offset="1" stop-color="#26bbad" stop-opacity="0"/>
    </radialGradient>
    <linearGradient id="linear-gradient-2" x1="78.22" y1="135.88" x2="137.56" y2="81.58" gradientUnits="userSpaceOnUse">
      <stop offset=".26" stop-color="#72c7a8"/>
      <stop offset=".46" stop-color="#72ccd3"/>
      <stop offset=".81" stop-color="#26bbad"/>
    </linearGradient>
  </defs>
  <g id="Layer_9" data-name="Layer 9">
    <path class="cls-7" d="m168.71.02H46.59C20.94.02.15,20.82.15,46.46v122.12c0,25.65,20.79,46.44,46.44,46.44h122.12c25.65,0,46.44-20.79,46.44-46.44V46.46C215.15,20.82,194.36.02,168.71.02Zm-9.12,124.37l-34.22,34.22c-9.32,9.32-24.42,9.32-33.74,0l-34.22-34.22c-9.32-9.32-9.32-24.42,0-33.74l34.22-34.22c9.32-9.32,24.42-9.32,33.74,0l34.22,34.22c9.32,9.32,9.32,24.42,0,33.74Z"/>
    <g id="Layer_7" data-name="Layer 7">
      <path class="cls-3" d="m168.71.02H46.59C20.94.02.15,20.82.15,46.46v122.12c0,25.65,20.79,46.44,46.44,46.44h122.12c25.65,0,46.44-20.79,46.44-46.44V46.46C215.15,20.82,194.36.02,168.71.02Zm-9.12,124.37l-34.22,34.22c-9.32,9.32-24.42,9.32-33.74,0l-34.22-34.22c-9.32-9.32-9.32-24.42,0-33.74l34.22-34.22c9.32-9.32,24.42-9.32,33.74,0l34.22,34.22c9.32,9.32,9.32,24.42,0,33.74Z"/>
    </g>
    <path class="cls-4" d="m168.71,0H46.59C20.94,0,.15,20.79.15,46.44v122.12c0,25.65,20.79,46.44,46.44,46.44h122.12c25.65,0,46.44-20.79,46.44-46.44V46.44c0-25.65-20.79-46.44-46.44-46.44Zm-9.12,124.39l-34.22,34.22c-9.32,9.32-24.42,9.32-33.74,0l-34.22-34.22c-9.32-9.32-9.32-24.42,0-33.74l34.22-34.22c9.32-9.32,24.42-9.32,33.74,0l34.22,34.22c9.32,9.32,9.32,24.42,0,33.74Z"/>
    <path class="cls-5" d="m91.63,158.61l-34.22-34.22c-9.32-9.32-9.32-24.42,0-33.74l34.22-34.22c9.32-9.32,24.42-9.32,33.74,0l16.37,16.37L168.71.02,46.59,6.07C1,8.91.27,52.55.15,52.5v42c.66,1.01,14.43,67.8,107.21,71.07v-.03c-5.71-.27-11.36-2.56-15.73-6.93Z"/>
    <path class="cls-6" d="m91.63,158.61l-34.22-34.22c-9.32-9.32-9.32-24.42,0-33.74l34.22-34.22c9.32-9.32,24.42-9.32,33.74,0l17.84,17.84L174.34.27,46.59.02C.32,1.37-.31,45.23.15,46.46v29.24c.66,1.01,14.43,84.25,104.78,89.62v-.02c-4.86-.73-9.55-2.95-13.29-6.69Z"/>
    <path class="cls-2" d="m168.56.02H46.44C20.79.02,0,20.82,0,46.46v122.12c0,25.65,20.79,46.44,46.44,46.44h122.12c25.65,0,46.44-20.79,46.44-46.44V46.46C215,20.82,194.21.02,168.56.02Zm-8.98,124.37l-34.22,34.22c-9.32,9.32-24.42,9.32-33.74,0l-34.22-34.22c-9.32-9.32-9.32-24.42,0-33.74l34.22-34.22c9.32-9.32,24.42-9.32,33.74,0l34.22,34.22c9.32,9.32,9.32,24.42,0,33.74Z"/>
  </g>
  <g id="Layer_11" data-name="Layer 11">
    <path class="cls-1" d="m108.52,70.22s36.89,24.2,37.86,37.31-37.86,37.31-37.86,37.31c0,0-39.76-24.43-37.86-37.31,1.9-12.87,37.86-37.31,37.86-37.31Z"/>
  </g>
</svg>